<svg xmlns="http://www.w3.org/2000/svg" xmlns:xlink="http://www.w3.org/1999/xlink" version="1.1" id="Capa_1" x="0px" y="0px" style="enable-background:new 0 0 1080 1080;" xml:space="preserve" viewBox="359.43 484.12 361.15 111.76">
<g>
	<g>
		<path d="M435.25,595.71l-5.86-8.21c-0.87,0.12-1.66,0.18-2.38,0.18h-7.02v8.03h-1.79v-24.56h8.8c3.09,0,5.51,0.73,7.26,2.19    c1.75,1.46,2.63,3.49,2.63,6.09c0,1.94-0.5,3.57-1.49,4.89c-0.99,1.32-2.41,2.25-4.26,2.79l6.14,8.59H435.25z M427.01,586.1    c2.62,0,4.62-0.58,6-1.74c1.38-1.16,2.07-2.8,2.07-4.93c0-2.13-0.69-3.77-2.07-4.93c-1.38-1.16-3.38-1.74-6-1.74h-7.02v13.33    H427.01z"></path>
		<path d="M472.68,588.8h-14.24l-3.12,6.91h-1.93l11.3-24.56h1.79l11.3,24.56h-1.93L472.68,588.8z M472.02,587.29l-6.45-14.17    l-6.42,14.17H472.02z"></path>
		<path d="M512.32,573.35c1.75,1.46,2.63,3.49,2.63,6.09c0,2.57-0.88,4.59-2.63,6.05c-1.75,1.46-4.17,2.19-7.26,2.19h-7.02v8.03    h-1.79v-24.56h8.8C508.15,571.15,510.57,571.88,512.32,573.35z M511.06,584.34c1.38-1.15,2.07-2.78,2.07-4.91    c0-2.13-0.69-3.77-2.07-4.93c-1.38-1.16-3.38-1.74-6-1.74h-7.02v13.3h7.02C507.68,586.06,509.68,585.49,511.06,584.34z"></path>
		<path d="M551.09,573.35c1.75,1.46,2.63,3.49,2.63,6.09c0,2.57-0.88,4.59-2.63,6.05c-1.75,1.46-4.17,2.19-7.26,2.19h-7.02v8.03    h-1.79v-24.56h8.8C546.91,571.15,549.33,571.88,551.09,573.35z M549.82,584.34c1.38-1.15,2.07-2.78,2.07-4.91    c0-2.13-0.69-3.77-2.07-4.93c-1.38-1.16-3.38-1.74-6-1.74h-7.02v13.3h7.02C546.44,586.06,548.44,585.49,549.82,584.34z"></path>
		<path d="M578.03,594.25c-1.94-1.09-3.47-2.58-4.58-4.47c-1.11-1.89-1.67-4.01-1.67-6.35c0-2.34,0.56-4.46,1.67-6.35    c1.11-1.89,2.64-3.38,4.58-4.47c1.94-1.09,4.12-1.63,6.53-1.63c2.41,0,4.58,0.54,6.52,1.61c1.94,1.08,3.47,2.56,4.58,4.46    c1.11,1.89,1.67,4.02,1.67,6.38s-0.56,4.49-1.67,6.38c-1.11,1.9-2.64,3.38-4.58,4.46c-1.94,1.08-4.12,1.61-6.52,1.61    C582.14,595.88,579.97,595.34,578.03,594.25z M590.13,592.83c1.66-0.94,2.97-2.23,3.93-3.88s1.44-3.49,1.44-5.52    c0-2.04-0.48-3.88-1.44-5.53c-0.96-1.65-2.27-2.94-3.93-3.88c-1.66-0.94-3.52-1.4-5.58-1.4c-2.06,0-3.92,0.47-5.6,1.4    c-1.67,0.94-2.99,2.23-3.95,3.88c-0.96,1.65-1.44,3.49-1.44,5.53c0,2.03,0.48,3.88,1.44,5.52c0.96,1.65,2.27,2.94,3.95,3.88    c1.67,0.94,3.54,1.4,5.6,1.4C586.61,594.24,588.47,593.77,590.13,592.83z"></path>
		<path d="M634.61,595.71l-5.86-8.21c-0.87,0.12-1.66,0.18-2.39,0.18h-7.02v8.03h-1.79v-24.56h8.8c3.09,0,5.51,0.73,7.26,2.19    c1.75,1.46,2.63,3.49,2.63,6.09c0,1.94-0.5,3.57-1.49,4.89c-0.99,1.32-2.41,2.25-4.26,2.79l6.14,8.59H634.61z M626.37,586.1    c2.62,0,4.62-0.58,6-1.74s2.07-2.8,2.07-4.93c0-2.13-0.69-3.77-2.07-4.93c-1.38-1.16-3.38-1.74-6-1.74h-7.02v13.33H626.37z"></path>
		<path d="M661.2,572.77h-8.84v-1.61h19.47v1.61h-8.84v22.94h-1.79V572.77z"></path>
	</g>
	<g>
		<g>
			<path d="M406.13,519.96l6.41-35.04h13.36l-11.86,55.88h-13.97l-7.48-31.85l-7.33,31.85h-13.93l-11.9-55.88h13.39l6.41,35.04     l7.68-35.04h11.44L406.13,519.96z"></path>
			<path d="M569.45,495.32h-16.77v45.48h-13.47v-45.48h-16.46v-10.4h46.7V495.32z"></path>
			<path d="M643.92,521.88c-0.18,3.89-1.23,7.32-3.15,10.3c-1.92,2.98-4.61,5.29-8.08,6.93c-3.47,1.64-7.43,2.46-11.88,2.46     c-7.34,0-13.13-2.39-17.35-7.18c-4.22-4.78-6.33-11.54-6.33-20.26v-2.76c0-5.47,0.95-10.27,2.86-14.37     c1.91-4.11,4.65-7.28,8.23-9.52c3.58-2.24,7.73-3.36,12.43-3.36c6.78,0,12.23,1.78,16.35,5.35c4.12,3.57,6.46,8.49,7.02,14.76     h-13.43c-0.1-3.4-0.96-5.85-2.57-7.33c-1.61-1.48-4.07-2.23-7.37-2.23c-3.35,0-5.81,1.25-7.37,3.76     c-1.56,2.51-2.38,6.51-2.46,12.01v3.95c0,5.96,0.75,10.22,2.25,12.78c1.5,2.56,4.07,3.84,7.73,3.84c3.1,0,5.46-0.73,7.1-2.19     c1.64-1.46,2.51-3.77,2.61-6.95H643.92z"></path>
			<path d="M720.58,540.8h-13.39v-23.33h-19.84v23.33h-13.47v-55.88h13.47v22.18h19.84v-22.18h13.39V540.8z"></path>
		</g>
		<g>
			<path d="M475.66,500.1l-11.13,40.68h-15.04l18.8-55.88h14.74l18.65,55.88h-14.93L475.66,500.1z"></path>
		</g>
	</g>
</g>
</svg>